<svg width="50" height="51" viewBox="0 0 50 51" xmlns="http://www.w3.org/2000/svg">
<path d="M17.1875 7.88574C12.0313 7.88574 7.8125 12.118 7.8125 17.2908V17.6827L6.05469 20.034C6.60937 20.4509 7.19062 20.7252 7.8125 20.9165V24.7851C6.85937 25.6488 6.25 26.8855 6.25 28.2634C6.25 29.6412 6.85937 30.878 7.8125 31.7417V36.1009C7.8125 37.8158 9.22813 39.236 10.9375 39.236H39.0625C40.7719 39.236 42.1875 37.8158 42.1875 36.1009V31.7417C43.1406 30.878 43.75 29.6412 43.75 28.2634C43.75 26.8855 43.1406 25.6488 42.1875 24.7851V20.9149C42.8094 20.7268 43.3906 20.4509 43.9453 20.034L42.1875 17.6341V17.2908C42.1875 12.118 37.9687 7.88574 32.8125 7.88574H17.1875ZM17.1875 11.0208H18.75C18.75 11.8829 19.4531 12.5883 20.3125 12.5883C21.1719 12.5883 21.875 11.8829 21.875 11.0208H32.8125C36.2797 11.0208 39.0625 13.8125 39.0625 17.2908V18.0746C38.6542 17.9519 38.273 17.7524 37.9391 17.4867L37.1094 16.8989L36.1813 17.4382L35.0094 18.1232C33.9172 18.7784 32.5875 18.7784 31.4938 18.1232L30.3219 17.4382L29.5906 16.9977L28.8094 17.3394L26.5625 18.515C26.0846 18.7536 25.558 18.8778 25.0242 18.8778C24.4904 18.8778 23.9639 18.7536 23.4859 18.515L21.1906 17.3394L20.4094 16.9961L19.6781 17.4382L18.5062 18.1232C17.4125 18.7784 16.0828 18.7784 14.9906 18.1232L13.8187 17.4382L12.8906 16.8989L12.0609 17.4867C11.7263 17.7512 11.3452 17.9506 10.9375 18.0746V17.2908C10.9375 13.8125 13.7203 11.0208 17.1875 11.0208ZM17.1875 12.5883C16.3281 12.5883 15.625 13.2937 15.625 14.1558C15.625 15.0179 16.3281 15.7233 17.1875 15.7233C18.0469 15.7233 18.75 15.0179 18.75 14.1558C18.75 13.2937 18.0469 12.5883 17.1875 12.5883ZM23.4375 12.5883C22.5781 12.5883 21.875 13.2937 21.875 14.1558C21.875 15.0179 22.5781 15.7233 23.4375 15.7233C24.2969 15.7233 25 15.0179 25 14.1558C25 13.2937 24.2969 12.5883 23.4375 12.5883ZM12.7438 20.4258L13.3781 20.8177C14.3958 21.4308 15.5606 21.7547 16.7477 21.7547C17.9347 21.7547 19.0995 21.4308 20.1172 20.8177L20.5563 20.523L22.0703 21.3068C23.9141 22.2316 26.0859 22.2316 27.9297 21.3068L29.4437 20.523L29.8828 20.8177C30.9005 21.4308 32.0653 21.7547 33.2523 21.7547C34.4394 21.7547 35.6042 21.4308 36.6219 20.8177L37.2562 20.4258C37.8422 20.708 38.4406 20.8851 39.0625 21.0136V23.5608H10.9375V21.0136C11.5614 20.8931 12.1681 20.6956 12.7438 20.4258V20.4258ZM10.9375 26.6959H39.0625C39.9469 26.6959 40.625 27.3762 40.625 28.2634C40.625 29.1506 39.9469 29.8309 39.0625 29.8309H10.9375C10.0531 29.8309 9.375 29.1506 9.375 28.2634C9.375 27.3762 10.0531 26.6959 10.9375 26.6959ZM10.9375 32.9659H39.0625V36.1009H10.9375V32.9659Z"/>
</svg>
